ISO-10303-21;
HEADER;
FILE_DESCRIPTION(('FreeCAD Model'),'2;1');
FILE_NAME('Open CASCADE Shape Model','2026-09-27T12:24:55',('FreeCAD'),(
    'FreeCAD'),'Open CASCADE STEP processor 7.8','FreeCAD','Unknown');
FILE_SCHEMA(('AUTOMOTIVE_DESIGN { 1 0 10303 214 1 1 1 1 }'));
ENDSEC;
DATA;
#1 = APPLICATION_PROTOCOL_DEFINITION('international standard',
  'automotive_design',2000,#2);
#2 = APPLICATION_CONTEXT(
  'core data for automotive mechanical design processes');
#3 = SHAPE_DEFINITION_REPRESENTATION(#4,#10);
#4 = PRODUCT_DEFINITION_SHAPE('','',#5);
#5 = PRODUCT_DEFINITION('design','',#6,#9);
#6 = PRODUCT_DEFINITION_FORMATION('','',#7);
#7 = PRODUCT('Open CASCADE STEP translator 7.8 4',
  'Open CASCADE STEP translator 7.8 4','',(#8));
#8 = PRODUCT_CONTEXT('',#2,'mechanical');
#9 = PRODUCT_DEFINITION_CONTEXT('part definition',#2,'design');
#10 = ADVANCED_BREP_SHAPE_REPRESENTATION('',(#11,#15),#878);
#11 = AXIS2_PLACEMENT_3D('',#12,#13,#14);
#12 = CARTESIAN_POINT('',(0.,0.,0.));
#13 = DIRECTION('',(0.,0.,1.));
#14 = DIRECTION('',(1.,0.,-0.));
#15 = MANIFOLD_SOLID_BREP('',#16);
#16 = CLOSED_SHELL('',(#17,#34,#59,#207,#240,#264,#299,#319,#336,#349,
    #374,#394,#419,#439,#464,#484,#632,#665,#689,#724,#744,#761,#774,
    #799,#819,#844,#869));
#17 = ADVANCED_FACE('',(#18),#29,.F.);
#18 = FACE_BOUND('',#19,.T.);
#19 = EDGE_LOOP('',(#20));
#20 = ORIENTED_EDGE('',*,*,#21,.F.);
#21 = EDGE_CURVE('',#22,#22,#24,.T.);
#22 = VERTEX_POINT('',#23);
#23 = CARTESIAN_POINT('',(25.2,0.,0.));
#24 = CIRCLE('',#25,25.2);
#25 = AXIS2_PLACEMENT_3D('',#26,#27,#28);
#26 = CARTESIAN_POINT('',(0.,0.,0.));
#27 = DIRECTION('',(0.,0.,1.));
#28 = DIRECTION('',(1.,0.,-0.));
#29 = PLANE('',#30);
#30 = AXIS2_PLACEMENT_3D('',#31,#32,#33);
#31 = CARTESIAN_POINT('',(0.,0.,0.));
#32 = DIRECTION('',(0.,0.,1.));
#33 = DIRECTION('',(1.,0.,-0.));
#34 = ADVANCED_FACE('',(#35),#54,.T.);
#35 = FACE_BOUND('',#36,.T.);
#36 = EDGE_LOOP('',(#37,#38,#46,#53));
#37 = ORIENTED_EDGE('',*,*,#21,.T.);
#38 = ORIENTED_EDGE('',*,*,#39,.T.);
#39 = EDGE_CURVE('',#22,#40,#42,.T.);
#40 = VERTEX_POINT('',#41);
#41 = CARTESIAN_POINT('',(27.2,0.,2.));
#42 = LINE('',#43,#44);
#43 = CARTESIAN_POINT('',(25.2,0.,0.));
#44 = VECTOR('',#45,1.);
#45 = DIRECTION('',(0.707106781187,0.,0.707106781187));
#46 = ORIENTED_EDGE('',*,*,#47,.F.);
#47 = EDGE_CURVE('',#40,#40,#48,.T.);
#48 = CIRCLE('',#49,27.2);
#49 = AXIS2_PLACEMENT_3D('',#50,#51,#52);
#50 = CARTESIAN_POINT('',(0.,0.,2.));
#51 = DIRECTION('',(0.,0.,1.));
#52 = DIRECTION('',(1.,0.,-0.));
#53 = ORIENTED_EDGE('',*,*,#39,.F.);
#54 = CONICAL_SURFACE('',#55,25.2,0.785398163397);
#55 = AXIS2_PLACEMENT_3D('',#56,#57,#58);
#56 = CARTESIAN_POINT('',(0.,0.,0.));
#57 = DIRECTION('',(0.,0.,1.));
#58 = DIRECTION('',(1.,0.,-0.));
#59 = ADVANCED_FACE('',(#60),#202,.T.);
#60 = FACE_BOUND('',#61,.T.);
#61 = EDGE_LOOP('',(#62,#70,#71,#72,#97,#105,#130,#138,#145,#146,#171,
    #179));
#62 = ORIENTED_EDGE('',*,*,#63,.F.);
#63 = EDGE_CURVE('',#40,#64,#66,.T.);
#64 = VERTEX_POINT('',#65);
#65 = CARTESIAN_POINT('',(27.2,0.,6.));
#66 = LINE('',#67,#68);
#67 = CARTESIAN_POINT('',(27.2,0.,2.));
#68 = VECTOR('',#69,1.);
#69 = DIRECTION('',(0.,0.,1.));
#70 = ORIENTED_EDGE('',*,*,#47,.T.);
#71 = ORIENTED_EDGE('',*,*,#63,.T.);
#72 = ORIENTED_EDGE('',*,*,#73,.F.);
#73 = EDGE_CURVE('',#74,#64,#76,.T.);
#74 = VERTEX_POINT('',#75);
#75 = CARTESIAN_POINT('',(25.667878759259,-9.,15.));
#76 = B_SPLINE_CURVE_WITH_KNOTS('',7,(#77,#78,#79,#80,#81,#82,#83,#84,
    #85,#86,#87,#88,#89,#90,#91,#92,#93,#94,#95,#96),.UNSPECIFIED.,.F.,
  .F.,(8,6,6,8),(0.,0.48793751559,0.836837891887,1.),.UNSPECIFIED.);
#77 = CARTESIAN_POINT('',(25.667878759259,-9.,15.));
#78 = CARTESIAN_POINT('',(25.667878759259,-9.,14.143634256302));
#79 = CARTESIAN_POINT('',(25.701211911947,-8.904934404102,
    13.288864212784));
#80 = CARTESIAN_POINT('',(25.767653907433,-8.715441932624,
    12.442204453001));
#81 = CARTESIAN_POINT('',(25.865191081091,-8.430166724187,
    11.610403633338));
#82 = CARTESIAN_POINT('',(25.98993314026,-8.046239593256,10.801660958977
    ));
#83 = CARTESIAN_POINT('',(26.135662626839,-7.559453205064,10.02649663751
    ));
#84 = CARTESIAN_POINT('',(26.405738247851,-6.539905001659,8.780664707314
    ));
#85 = CARTESIAN_POINT('',(26.524888802276,-6.057715029905,8.28366096022)
  );
#86 = CARTESIAN_POINT('',(26.647130972448,-5.516383688404,7.815910054019
    ));
#87 = CARTESIAN_POINT('',(26.767958706403,-4.914354835091,7.385660496689
    ));
#88 = CARTESIAN_POINT('',(26.881782303609,-4.25082666533,7.00273756057)
  );
#89 = CARTESIAN_POINT('',(26.981936883223,-3.526255333055,6.67885751959)
  );
#90 = CARTESIAN_POINT('',(27.09843047386,-2.377082958981,6.311082400029)
  );
#91 = CARTESIAN_POINT('',(27.130956759189,-1.998612974689,6.210076974047
    ));
#92 = CARTESIAN_POINT('',(27.158004154074,-1.609948514936,6.127205419215
    ));
#93 = CARTESIAN_POINT('',(27.17883821891,-1.213351642466,6.063955291847)
  );
#94 = CARTESIAN_POINT('',(27.192932485167,-0.811196383289,6.021359733176
    ));
#95 = CARTESIAN_POINT('',(27.2,-0.405924415914,6.));
#96 = CARTESIAN_POINT('',(27.2,0.,6.));
#97 = ORIENTED_EDGE('',*,*,#98,.T.);
#98 = EDGE_CURVE('',#74,#99,#101,.T.);
#99 = VERTEX_POINT('',#100);
#100 = CARTESIAN_POINT('',(25.667878759259,-9.,70.));
#101 = LINE('',#102,#103);
#102 = CARTESIAN_POINT('',(25.667878759259,-9.,2.));
#103 = VECTOR('',#104,1.);
#104 = DIRECTION('',(0.,0.,1.));
#105 = ORIENTED_EDGE('',*,*,#106,.F.);
#106 = EDGE_CURVE('',#107,#99,#109,.T.);
#107 = VERTEX_POINT('',#108);
#108 = CARTESIAN_POINT('',(27.2,0.,79.));
#109 = B_SPLINE_CURVE_WITH_KNOTS('',7,(#110,#111,#112,#113,#114,#115,
    #116,#117,#118,#119,#120,#121,#122,#123,#124,#125,#126,#127,#128,
    #129),.UNSPECIFIED.,.F.,.F.,(8,6,6,8),(0.,0.262704828456,
    0.512167913816,1.),.UNSPECIFIED.);
#110 = CARTESIAN_POINT('',(27.2,-1.7763568394E-15,79.));
#111 = CARTESIAN_POINT('',(27.2,-0.655549536856,79.));
#112 = CARTESIAN_POINT('',(27.181567233199,-1.305744161068,
    78.944292412741));
#113 = CARTESIAN_POINT('',(27.145244246611,-1.942491307479,
    78.834514579226));
#114 = CARTESIAN_POINT('',(27.092851259931,-2.557966359468,
    78.674241146889));
#115 = CARTESIAN_POINT('',(27.027376291828,-3.144962024389,
    78.468931460193));
#116 = CARTESIAN_POINT('',(26.952544944188,-3.697204613827,
    78.225980967748));
#117 = CARTESIAN_POINT('',(26.796052272798,-4.696184490587,
    77.697331289263));
#118 = CARTESIAN_POINT('',(26.714278416613,-5.150965728186,
    77.412219473595));
#119 = CARTESIAN_POINT('',(26.629269052144,-5.57419355771,
    77.103768798813));
#120 = CARTESIAN_POINT('',(26.543057687787,-5.966424421638,
    76.775568805752));
#121 = CARTESIAN_POINT('',(26.457374623157,-6.328410239005,
    76.430611584248));
#122 = CARTESIAN_POINT('',(26.373663543407,-6.66098852326,
    76.071377876913));
#123 = CARTESIAN_POINT('',(26.13566332946,-7.559450552635,
    74.973506603612));
#124 = CARTESIAN_POINT('',(25.989933205041,-8.04623989387,
    74.198340269587));
#125 = CARTESIAN_POINT('',(25.865190560233,-8.430168169712,
    73.38959413616));
#126 = CARTESIAN_POINT('',(25.767653459668,-8.715443255319,
    72.557791449026));
#127 = CARTESIAN_POINT('',(25.701211789931,-8.904934740583,
    71.71113198994));
#128 = CARTESIAN_POINT('',(25.667878759259,-9.,70.856364212406));
#129 = CARTESIAN_POINT('',(25.667878759259,-9.,70.));
#130 = ORIENTED_EDGE('',*,*,#131,.T.);
#131 = EDGE_CURVE('',#107,#132,#134,.T.);
#132 = VERTEX_POINT('',#133);
#133 = CARTESIAN_POINT('',(27.2,0.,85.));
#134 = LINE('',#135,#136);
#135 = CARTESIAN_POINT('',(27.2,0.,2.));
#136 = VECTOR('',#137,1.);
#137 = DIRECTION('',(0.,0.,1.));
#138 = ORIENTED_EDGE('',*,*,#139,.F.);
#139 = EDGE_CURVE('',#132,#132,#140,.T.);
#140 = CIRCLE('',#141,27.2);
#141 = AXIS2_PLACEMENT_3D('',#142,#143,#144);
#142 = CARTESIAN_POINT('',(0.,0.,85.));
#143 = DIRECTION('',(0.,0.,1.));
#144 = DIRECTION('',(1.,0.,-0.));
#145 = ORIENTED_EDGE('',*,*,#131,.F.);
#146 = ORIENTED_EDGE('',*,*,#147,.F.);
#147 = EDGE_CURVE('',#148,#107,#150,.T.);
#148 = VERTEX_POINT('',#149);
#149 = CARTESIAN_POINT('',(25.667878759259,9.,70.));
#150 = B_SPLINE_CURVE_WITH_KNOTS('',7,(#151,#152,#153,#154,#155,#156,
    #157,#158,#159,#160,#161,#162,#163,#164,#165,#166,#167,#168,#169,
    #170),.UNSPECIFIED.,.F.,.F.,(8,6,6,8),(0.,0.487937514083,
    0.836837891385,1.),.UNSPECIFIED.);
#151 = CARTESIAN_POINT('',(25.667878759259,9.,70.));
#152 = CARTESIAN_POINT('',(25.667878759259,9.,70.856365738824));
#153 = CARTESIAN_POINT('',(25.701211912827,8.904934400998,
    71.711135805884));
#154 = CARTESIAN_POINT('',(25.767653904605,8.715441942702,
    72.557795514057));
#155 = CARTESIAN_POINT('',(25.865191085029,8.430166709946,
    73.389596398731));
#156 = CARTESIAN_POINT('',(25.989933137458,8.046239603585,
    74.198339023871));
#157 = CARTESIAN_POINT('',(26.13566262774,7.559453201662,74.973503366647
    ));
#158 = CARTESIAN_POINT('',(26.405738247879,6.539905001555,
    76.219335292813));
#159 = CARTESIAN_POINT('',(26.524888802277,6.057715029885,76.71633903976
    ));
#160 = CARTESIAN_POINT('',(26.647130972422,5.5163836885,77.184089945886)
  );
#161 = CARTESIAN_POINT('',(26.767958706385,4.91435483521,77.614339503259
    ));
#162 = CARTESIAN_POINT('',(26.881782303622,4.25082666531,77.997262439473
    ));
#163 = CARTESIAN_POINT('',(26.981936883239,3.526255332902,
    78.321142480459));
#164 = CARTESIAN_POINT('',(27.09843047386,2.377082958981,78.688917599971
    ));
#165 = CARTESIAN_POINT('',(27.130956759189,1.998612974689,
    78.789923025953));
#166 = CARTESIAN_POINT('',(27.158004154074,1.609948514936,
    78.872794580785));
#167 = CARTESIAN_POINT('',(27.17883821891,1.213351642466,78.936044708153
    ));
#168 = CARTESIAN_POINT('',(27.192932485167,0.811196383289,
    78.978640266824));
#169 = CARTESIAN_POINT('',(27.2,0.405924415914,79.));
#170 = CARTESIAN_POINT('',(27.2,2.204364238465E-15,79.));
#171 = ORIENTED_EDGE('',*,*,#172,.F.);
#172 = EDGE_CURVE('',#173,#148,#175,.T.);
#173 = VERTEX_POINT('',#174);
#174 = CARTESIAN_POINT('',(25.667878759259,9.,15.));
#175 = LINE('',#176,#177);
#176 = CARTESIAN_POINT('',(25.667878759259,9.,2.));
#177 = VECTOR('',#178,1.);
#178 = DIRECTION('',(0.,0.,1.));
#179 = ORIENTED_EDGE('',*,*,#180,.F.);
#180 = EDGE_CURVE('',#64,#173,#181,.T.);
#181 = B_SPLINE_CURVE_WITH_KNOTS('',7,(#182,#183,#184,#185,#186,#187,
    #188,#189,#190,#191,#192,#193,#194,#195,#196,#197,#198,#199,#200,
    #201),.UNSPECIFIED.,.F.,.F.,(8,6,6,8),(0.,0.262704828505,
    0.512167913876,1.),.UNSPECIFIED.);
#182 = CARTESIAN_POINT('',(27.2,3.445711829034E-15,6.));
#183 = CARTESIAN_POINT('',(27.2,0.655549536856,6.));
#184 = CARTESIAN_POINT('',(27.181567233199,1.305744161068,6.055707587259
    ));
#185 = CARTESIAN_POINT('',(27.145244246611,1.94249130748,6.165485420774)
  );
#186 = CARTESIAN_POINT('',(27.092851259931,2.557966359467,6.32575885311)
  );
#187 = CARTESIAN_POINT('',(27.027376291828,3.144962024389,6.531068539807
    ));
#188 = CARTESIAN_POINT('',(26.952544944188,3.697204613827,6.774019032252
    ));
#189 = CARTESIAN_POINT('',(26.796052272809,4.696184490518,7.302668710701
    ));
#190 = CARTESIAN_POINT('',(26.714278416616,5.150965728182,7.58778052639)
  );
#191 = CARTESIAN_POINT('',(26.629269052134,5.574193557761,7.896231201219
    ));
#192 = CARTESIAN_POINT('',(26.543057687776,5.966424421682,8.224431194295
    ));
#193 = CARTESIAN_POINT('',(26.457374623158,6.328410238996,8.569388415756
    ));
#194 = CARTESIAN_POINT('',(26.37366354342,6.66098852321,8.928622123025)
  );
#195 = CARTESIAN_POINT('',(26.13566332946,7.559450552635,10.026493396388
    ));
#196 = CARTESIAN_POINT('',(25.98993320504,8.046239893872,10.801659730415
    ));
#197 = CARTESIAN_POINT('',(25.865190560234,8.430168169709,
    11.610405863838));
#198 = CARTESIAN_POINT('',(25.767653459668,8.715443255321,
    12.442208550973));
#199 = CARTESIAN_POINT('',(25.701211789931,8.904934740582,
    13.288868010062));
#200 = CARTESIAN_POINT('',(25.667878759259,9.,14.143635787593));
#201 = CARTESIAN_POINT('',(25.667878759259,9.,15.));
#202 = CYLINDRICAL_SURFACE('',#203,27.2);
#203 = AXIS2_PLACEMENT_3D('',#204,#205,#206);
#204 = CARTESIAN_POINT('',(0.,0.,2.));
#205 = DIRECTION('',(0.,0.,1.));
#206 = DIRECTION('',(1.,0.,-0.));
#207 = ADVANCED_FACE('',(#208),#235,.F.);
#208 = FACE_BOUND('',#209,.F.);
#209 = EDGE_LOOP('',(#210,#211,#219,#228,#234));
#210 = ORIENTED_EDGE('',*,*,#73,.F.);
#211 = ORIENTED_EDGE('',*,*,#212,.F.);
#212 = EDGE_CURVE('',#213,#74,#215,.T.);
#213 = VERTEX_POINT('',#214);
#214 = CARTESIAN_POINT('',(20.3,-9.,15.));
#215 = LINE('',#216,#217);
#216 = CARTESIAN_POINT('',(20.3,-9.,15.));
#217 = VECTOR('',#218,1.);
#218 = DIRECTION('',(1.,0.,-0.));
#219 = ORIENTED_EDGE('',*,*,#220,.T.);
#220 = EDGE_CURVE('',#213,#221,#223,.T.);
#221 = VERTEX_POINT('',#222);
#222 = CARTESIAN_POINT('',(20.3,9.,15.));
#223 = CIRCLE('',#224,9.);
#224 = AXIS2_PLACEMENT_3D('',#225,#226,#227);
#225 = CARTESIAN_POINT('',(20.3,0.,15.));
#226 = DIRECTION('',(1.,0.,0.));
#227 = DIRECTION('',(-0.,0.,1.));
#228 = ORIENTED_EDGE('',*,*,#229,.T.);
#229 = EDGE_CURVE('',#221,#173,#230,.T.);
#230 = LINE('',#231,#232);
#231 = CARTESIAN_POINT('',(20.3,9.,15.));
#232 = VECTOR('',#233,1.);
#233 = DIRECTION('',(1.,0.,-0.));
#234 = ORIENTED_EDGE('',*,*,#180,.F.);
#235 = CYLINDRICAL_SURFACE('',#236,9.);
#236 = AXIS2_PLACEMENT_3D('',#237,#238,#239);
#237 = CARTESIAN_POINT('',(20.3,0.,15.));
#238 = DIRECTION('',(1.,0.,0.));
#239 = DIRECTION('',(-0.,0.,1.));
#240 = ADVANCED_FACE('',(#241),#259,.F.);
#241 = FACE_BOUND('',#242,.F.);
#242 = EDGE_LOOP('',(#243,#244,#252,#258));
#243 = ORIENTED_EDGE('',*,*,#229,.F.);
#244 = ORIENTED_EDGE('',*,*,#245,.T.);
#245 = EDGE_CURVE('',#221,#246,#248,.T.);
#246 = VERTEX_POINT('',#247);
#247 = CARTESIAN_POINT('',(20.3,9.,70.));
#248 = LINE('',#249,#250);
#249 = CARTESIAN_POINT('',(20.3,9.,15.));
#250 = VECTOR('',#251,1.);
#251 = DIRECTION('',(0.,0.,1.));
#252 = ORIENTED_EDGE('',*,*,#253,.T.);
#253 = EDGE_CURVE('',#246,#148,#254,.T.);
#254 = LINE('',#255,#256);
#255 = CARTESIAN_POINT('',(20.3,9.,70.));
#256 = VECTOR('',#257,1.);
#257 = DIRECTION('',(1.,0.,-0.));
#258 = ORIENTED_EDGE('',*,*,#172,.F.);
#259 = PLANE('',#260);
#260 = AXIS2_PLACEMENT_3D('',#261,#262,#263);
#261 = CARTESIAN_POINT('',(20.3,9.,15.));
#262 = DIRECTION('',(-0.,1.,0.));
#263 = DIRECTION('',(0.,0.,1.));
#264 = ADVANCED_FACE('',(#265),#294,.F.);
#265 = FACE_BOUND('',#266,.F.);
#266 = EDGE_LOOP('',(#267,#268,#269,#278,#287,#293));
#267 = ORIENTED_EDGE('',*,*,#147,.F.);
#268 = ORIENTED_EDGE('',*,*,#253,.F.);
#269 = ORIENTED_EDGE('',*,*,#270,.T.);
#270 = EDGE_CURVE('',#246,#271,#273,.T.);
#271 = VERTEX_POINT('',#272);
#272 = CARTESIAN_POINT('',(20.3,2.204364238465E-15,79.));
#273 = CIRCLE('',#274,9.);
#274 = AXIS2_PLACEMENT_3D('',#275,#276,#277);
#275 = CARTESIAN_POINT('',(20.3,0.,70.));
#276 = DIRECTION('',(1.,0.,0.));
#277 = DIRECTION('',(-0.,0.,1.));
#278 = ORIENTED_EDGE('',*,*,#279,.T.);
#279 = EDGE_CURVE('',#271,#280,#282,.T.);
#280 = VERTEX_POINT('',#281);
#281 = CARTESIAN_POINT('',(20.3,-9.,70.));
#282 = CIRCLE('',#283,9.);
#283 = AXIS2_PLACEMENT_3D('',#284,#285,#286);
#284 = CARTESIAN_POINT('',(20.3,0.,70.));
#285 = DIRECTION('',(1.,0.,0.));
#286 = DIRECTION('',(-0.,0.,1.));
#287 = ORIENTED_EDGE('',*,*,#288,.T.);
#288 = EDGE_CURVE('',#280,#99,#289,.T.);
#289 = LINE('',#290,#291);
#290 = CARTESIAN_POINT('',(20.3,-9.,70.));
#291 = VECTOR('',#292,1.);
#292 = DIRECTION('',(1.,0.,-0.));
#293 = ORIENTED_EDGE('',*,*,#106,.F.);
#294 = CYLINDRICAL_SURFACE('',#295,9.);
#295 = AXIS2_PLACEMENT_3D('',#296,#297,#298);
#296 = CARTESIAN_POINT('',(20.3,0.,70.));
#297 = DIRECTION('',(1.,0.,0.));
#298 = DIRECTION('',(-0.,0.,1.));
#299 = ADVANCED_FACE('',(#300,#303),#314,.F.);
#300 = FACE_BOUND('',#301,.T.);
#301 = EDGE_LOOP('',(#302));
#302 = ORIENTED_EDGE('',*,*,#139,.T.);
#303 = FACE_BOUND('',#304,.T.);
#304 = EDGE_LOOP('',(#305));
#305 = ORIENTED_EDGE('',*,*,#306,.F.);
#306 = EDGE_CURVE('',#307,#307,#309,.T.);
#307 = VERTEX_POINT('',#308);
#308 = CARTESIAN_POINT('',(30.,0.,85.));
#309 = CIRCLE('',#310,30.);
#310 = AXIS2_PLACEMENT_3D('',#311,#312,#313);
#311 = CARTESIAN_POINT('',(0.,0.,85.));
#312 = DIRECTION('',(0.,0.,1.));
#313 = DIRECTION('',(1.,0.,-0.));
#314 = PLANE('',#315);
#315 = AXIS2_PLACEMENT_3D('',#316,#317,#318);
#316 = CARTESIAN_POINT('',(0.,0.,85.));
#317 = DIRECTION('',(0.,0.,1.));
#318 = DIRECTION('',(1.,0.,-0.));
#319 = ADVANCED_FACE('',(#320),#331,.T.);
#320 = FACE_BOUND('',#321,.T.);
#321 = EDGE_LOOP('',(#322,#323,#329,#330));
#322 = ORIENTED_EDGE('',*,*,#212,.F.);
#323 = ORIENTED_EDGE('',*,*,#324,.T.);
#324 = EDGE_CURVE('',#213,#280,#325,.T.);
#325 = LINE('',#326,#327);
#326 = CARTESIAN_POINT('',(20.3,-9.,15.));
#327 = VECTOR('',#328,1.);
#328 = DIRECTION('',(0.,0.,1.));
#329 = ORIENTED_EDGE('',*,*,#288,.T.);
#330 = ORIENTED_EDGE('',*,*,#98,.F.);
#331 = PLANE('',#332);
#332 = AXIS2_PLACEMENT_3D('',#333,#334,#335);
#333 = CARTESIAN_POINT('',(20.3,-9.,15.));
#334 = DIRECTION('',(-0.,1.,0.));
#335 = DIRECTION('',(0.,0.,1.));
#336 = ADVANCED_FACE('',(#337),#344,.F.);
#337 = FACE_BOUND('',#338,.F.);
#338 = EDGE_LOOP('',(#339,#340,#341,#342,#343));
#339 = ORIENTED_EDGE('',*,*,#324,.T.);
#340 = ORIENTED_EDGE('',*,*,#279,.F.);
#341 = ORIENTED_EDGE('',*,*,#270,.F.);
#342 = ORIENTED_EDGE('',*,*,#245,.F.);
#343 = ORIENTED_EDGE('',*,*,#220,.F.);
#344 = PLANE('',#345);
#345 = AXIS2_PLACEMENT_3D('',#346,#347,#348);
#346 = CARTESIAN_POINT('',(20.3,1.723024316796E-16,42.756900886498));
#347 = DIRECTION('',(-1.,-0.,-0.));
#348 = DIRECTION('',(0.,0.,-1.));
#349 = ADVANCED_FACE('',(#350),#369,.T.);
#350 = FACE_BOUND('',#351,.T.);
#351 = EDGE_LOOP('',(#352,#353,#361,#368));
#352 = ORIENTED_EDGE('',*,*,#306,.T.);
#353 = ORIENTED_EDGE('',*,*,#354,.T.);
#354 = EDGE_CURVE('',#307,#355,#357,.T.);
#355 = VERTEX_POINT('',#356);
#356 = CARTESIAN_POINT('',(30.,0.,162.));
#357 = LINE('',#358,#359);
#358 = CARTESIAN_POINT('',(30.,0.,85.));
#359 = VECTOR('',#360,1.);
#360 = DIRECTION('',(0.,0.,1.));
#361 = ORIENTED_EDGE('',*,*,#362,.F.);
#362 = EDGE_CURVE('',#355,#355,#363,.T.);
#363 = CIRCLE('',#364,30.);
#364 = AXIS2_PLACEMENT_3D('',#365,#366,#367);
#365 = CARTESIAN_POINT('',(0.,0.,162.));
#366 = DIRECTION('',(0.,0.,1.));
#367 = DIRECTION('',(1.,0.,-0.));
#368 = ORIENTED_EDGE('',*,*,#354,.F.);
#369 = CYLINDRICAL_SURFACE('',#370,30.);
#370 = AXIS2_PLACEMENT_3D('',#371,#372,#373);
#371 = CARTESIAN_POINT('',(0.,0.,85.));
#372 = DIRECTION('',(0.,0.,1.));
#373 = DIRECTION('',(1.,0.,-0.));
#374 = ADVANCED_FACE('',(#375,#378),#389,.F.);
#375 = FACE_BOUND('',#376,.T.);
#376 = EDGE_LOOP('',(#377));
#377 = ORIENTED_EDGE('',*,*,#362,.T.);
#378 = FACE_BOUND('',#379,.T.);
#379 = EDGE_LOOP('',(#380));
#380 = ORIENTED_EDGE('',*,*,#381,.F.);
#381 = EDGE_CURVE('',#382,#382,#384,.T.);
#382 = VERTEX_POINT('',#383);
#383 = CARTESIAN_POINT('',(35.,0.,162.));
#384 = CIRCLE('',#385,35.);
#385 = AXIS2_PLACEMENT_3D('',#386,#387,#388);
#386 = CARTESIAN_POINT('',(0.,0.,162.));
#387 = DIRECTION('',(0.,0.,1.));
#388 = DIRECTION('',(1.,0.,-0.));
#389 = PLANE('',#390);
#390 = AXIS2_PLACEMENT_3D('',#391,#392,#393);
#391 = CARTESIAN_POINT('',(0.,0.,162.));
#392 = DIRECTION('',(0.,0.,1.));
#393 = DIRECTION('',(1.,0.,-0.));
#394 = ADVANCED_FACE('',(#395),#414,.T.);
#395 = FACE_BOUND('',#396,.T.);
#396 = EDGE_LOOP('',(#397,#398,#406,#413));
#397 = ORIENTED_EDGE('',*,*,#381,.T.);
#398 = ORIENTED_EDGE('',*,*,#399,.T.);
#399 = EDGE_CURVE('',#382,#400,#402,.T.);
#400 = VERTEX_POINT('',#401);
#401 = CARTESIAN_POINT('',(35.,0.,237.));
#402 = LINE('',#403,#404);
#403 = CARTESIAN_POINT('',(35.,0.,162.));
#404 = VECTOR('',#405,1.);
#405 = DIRECTION('',(0.,0.,1.));
#406 = ORIENTED_EDGE('',*,*,#407,.F.);
#407 = EDGE_CURVE('',#400,#400,#408,.T.);
#408 = CIRCLE('',#409,35.);
#409 = AXIS2_PLACEMENT_3D('',#410,#411,#412);
#410 = CARTESIAN_POINT('',(0.,0.,237.));
#411 = DIRECTION('',(0.,0.,1.));
#412 = DIRECTION('',(1.,0.,-0.));
#413 = ORIENTED_EDGE('',*,*,#399,.F.);
#414 = CYLINDRICAL_SURFACE('',#415,35.);
#415 = AXIS2_PLACEMENT_3D('',#416,#417,#418);
#416 = CARTESIAN_POINT('',(0.,0.,162.));
#417 = DIRECTION('',(0.,0.,1.));
#418 = DIRECTION('',(1.,0.,-0.));
#419 = ADVANCED_FACE('',(#420,#423),#434,.F.);
#420 = FACE_BOUND('',#421,.T.);
#421 = EDGE_LOOP('',(#422));
#422 = ORIENTED_EDGE('',*,*,#407,.T.);
#423 = FACE_BOUND('',#424,.T.);
#424 = EDGE_LOOP('',(#425));
#425 = ORIENTED_EDGE('',*,*,#426,.F.);
#426 = EDGE_CURVE('',#427,#427,#429,.T.);
#427 = VERTEX_POINT('',#428);
#428 = CARTESIAN_POINT('',(44.,0.,237.));
#429 = CIRCLE('',#430,44.);
#430 = AXIS2_PLACEMENT_3D('',#431,#432,#433);
#431 = CARTESIAN_POINT('',(0.,0.,237.));
#432 = DIRECTION('',(0.,0.,1.));
#433 = DIRECTION('',(1.,0.,-0.));
#434 = PLANE('',#435);
#435 = AXIS2_PLACEMENT_3D('',#436,#437,#438);
#436 = CARTESIAN_POINT('',(0.,0.,237.));
#437 = DIRECTION('',(0.,0.,1.));
#438 = DIRECTION('',(1.,0.,-0.));
#439 = ADVANCED_FACE('',(#440),#459,.T.);
#440 = FACE_BOUND('',#441,.T.);
#441 = EDGE_LOOP('',(#442,#443,#451,#458));
#442 = ORIENTED_EDGE('',*,*,#426,.T.);
#443 = ORIENTED_EDGE('',*,*,#444,.T.);
#444 = EDGE_CURVE('',#427,#445,#447,.T.);
#445 = VERTEX_POINT('',#446);
#446 = CARTESIAN_POINT('',(44.,0.,247.));
#447 = LINE('',#448,#449);
#448 = CARTESIAN_POINT('',(44.,0.,237.));
#449 = VECTOR('',#450,1.);
#450 = DIRECTION('',(0.,0.,1.));
#451 = ORIENTED_EDGE('',*,*,#452,.F.);
#452 = EDGE_CURVE('',#445,#445,#453,.T.);
#453 = CIRCLE('',#454,44.);
#454 = AXIS2_PLACEMENT_3D('',#455,#456,#457);
#455 = CARTESIAN_POINT('',(0.,0.,247.));
#456 = DIRECTION('',(0.,0.,1.));
#457 = DIRECTION('',(1.,0.,-0.));
#458 = ORIENTED_EDGE('',*,*,#444,.F.);
#459 = CYLINDRICAL_SURFACE('',#460,44.);
#460 = AXIS2_PLACEMENT_3D('',#461,#462,#463);
#461 = CARTESIAN_POINT('',(0.,0.,237.));
#462 = DIRECTION('',(0.,0.,1.));
#463 = DIRECTION('',(1.,0.,-0.));
#464 = ADVANCED_FACE('',(#465,#468),#479,.T.);
#465 = FACE_BOUND('',#466,.T.);
#466 = EDGE_LOOP('',(#467));
#467 = ORIENTED_EDGE('',*,*,#452,.T.);
#468 = FACE_BOUND('',#469,.T.);
#469 = EDGE_LOOP('',(#470));
#470 = ORIENTED_EDGE('',*,*,#471,.F.);
#471 = EDGE_CURVE('',#472,#472,#474,.T.);
#472 = VERTEX_POINT('',#473);
#473 = CARTESIAN_POINT('',(40.,0.,247.));
#474 = CIRCLE('',#475,40.);
#475 = AXIS2_PLACEMENT_3D('',#476,#477,#478);
#476 = CARTESIAN_POINT('',(0.,0.,247.));
#477 = DIRECTION('',(0.,0.,1.));
#478 = DIRECTION('',(1.,0.,-0.));
#479 = PLANE('',#480);
#480 = AXIS2_PLACEMENT_3D('',#481,#482,#483);
#481 = CARTESIAN_POINT('',(0.,0.,247.));
#482 = DIRECTION('',(0.,0.,1.));
#483 = DIRECTION('',(1.,0.,-0.));
#484 = ADVANCED_FACE('',(#485),#627,.T.);
#485 = FACE_BOUND('',#486,.T.);
#486 = EDGE_LOOP('',(#487,#495,#496,#497,#522,#530,#555,#563,#570,#571,
    #596,#604));
#487 = ORIENTED_EDGE('',*,*,#488,.F.);
#488 = EDGE_CURVE('',#472,#489,#491,.T.);
#489 = VERTEX_POINT('',#490);
#490 = CARTESIAN_POINT('',(40.,0.,252.5));
#491 = LINE('',#492,#493);
#492 = CARTESIAN_POINT('',(40.,0.,247.));
#493 = VECTOR('',#494,1.);
#494 = DIRECTION('',(0.,0.,1.));
#495 = ORIENTED_EDGE('',*,*,#471,.T.);
#496 = ORIENTED_EDGE('',*,*,#488,.T.);
#497 = ORIENTED_EDGE('',*,*,#498,.F.);
#498 = EDGE_CURVE('',#499,#489,#501,.T.);
#499 = VERTEX_POINT('',#500);
#500 = CARTESIAN_POINT('',(38.97435053981,-9.,261.5));
#501 = B_SPLINE_CURVE_WITH_KNOTS('',7,(#502,#503,#504,#505,#506,#507,
    #508,#509,#510,#511,#512,#513,#514,#515,#516,#517,#518,#519,#520,
    #521),.UNSPECIFIED.,.F.,.F.,(8,6,6,8),(0.,0.429388952309,
    0.824298275085,1.),.UNSPECIFIED.);
#502 = CARTESIAN_POINT('',(38.97435053981,-9.,261.5));
#503 = CARTESIAN_POINT('',(38.97435053981,-9.,260.75146098146));
#504 = CARTESIAN_POINT('',(38.991122843879,-8.92736787981,
    260.00348434559));
#505 = CARTESIAN_POINT('',(39.024623230738,-8.782294675937,
    259.26022598497));
#506 = CARTESIAN_POINT('',(39.07419812507,-8.563722666057,
    258.52607553637));
#507 = CARTESIAN_POINT('',(39.138554260078,-8.269524995125,
    257.80617076814));
#508 = CARTESIAN_POINT('',(39.215521526012,-7.89667638043,
    257.10711154597));
#509 = CARTESIAN_POINT('',(39.380974581058,-7.022847190965,
    255.82253396109));
#510 = CARTESIAN_POINT('',(39.468387209234,-6.532719999434,
    255.22970088028));
#511 = CARTESIAN_POINT('',(39.561267680293,-5.968006140165,
    254.66821198581));
#512 = CARTESIAN_POINT('',(39.65580365315,-5.32614290514,254.14889312538
    ));
#513 = CARTESIAN_POINT('',(39.746917433921,-4.605538019367,
    253.68490846498));
#514 = CARTESIAN_POINT('',(39.8281274816,-3.806387324739,253.29229881036
    ));
#515 = CARTESIAN_POINT('',(39.920970470352,-2.543266972694,
    252.85702424977));
#516 = CARTESIAN_POINT('',(39.946159060519,-2.140064003734,
    252.7412834921));
#517 = CARTESIAN_POINT('',(39.967199549233,-1.724977935957,
    252.64618109883));
#518 = CARTESIAN_POINT('',(39.983457904421,-1.300615956678,
    252.5735196844));
#519 = CARTESIAN_POINT('',(39.994474847721,-0.86974784908,
    252.52455654479));
#520 = CARTESIAN_POINT('',(40.,-0.435241954177,252.5));
#521 = CARTESIAN_POINT('',(40.,-1.7763568394E-15,252.5));
#522 = ORIENTED_EDGE('',*,*,#523,.T.);
#523 = EDGE_CURVE('',#499,#524,#526,.T.);
#524 = VERTEX_POINT('',#525);
#525 = CARTESIAN_POINT('',(38.97435053981,-9.,310.5));
#526 = LINE('',#527,#528);
#527 = CARTESIAN_POINT('',(38.97435053981,-9.,247.));
#528 = VECTOR('',#529,1.);
#529 = DIRECTION('',(0.,0.,1.));
#530 = ORIENTED_EDGE('',*,*,#531,.F.);
#531 = EDGE_CURVE('',#532,#524,#534,.T.);
#532 = VERTEX_POINT('',#533);
#533 = CARTESIAN_POINT('',(40.,0.,319.5));
#534 = B_SPLINE_CURVE_WITH_KNOTS('',7,(#535,#536,#537,#538,#539,#540,
    #541,#542,#543,#544,#545,#546,#547,#548,#549,#550,#551,#552,#553,
    #554),.UNSPECIFIED.,.F.,.F.,(8,6,6,8),(0.,0.288669398533,
    0.631681734901,1.),.UNSPECIFIED.);
#535 = CARTESIAN_POINT('',(40.,5.329070518201E-15,319.5));
#536 = CARTESIAN_POINT('',(40.,-0.717646252965,319.5));
#537 = CARTESIAN_POINT('',(39.984978598465,-1.428756108623,
    319.43323881973));
#538 = CARTESIAN_POINT('',(39.955429057904,-2.123196544193,
    319.30190432999));
#539 = CARTESIAN_POINT('',(39.913071537657,-2.791267593781,
    319.11069535519));
#540 = CARTESIAN_POINT('',(39.860724293039,-3.424226971962,
    318.86671441407));
#541 = CARTESIAN_POINT('',(39.801758445832,-4.014761084823,
    318.57945702685));
#542 = CARTESIAN_POINT('',(39.665593886327,-5.202097610531,
    317.88222293829));
#543 = CARTESIAN_POINT('',(39.586200674789,-5.786580084528,
    317.4549621133));
#544 = CARTESIAN_POINT('',(39.505311678708,-6.311728236802,
    316.98955914611));
#545 = CARTESIAN_POINT('',(39.426138306888,-6.7794263957,316.49416134858
    ));
#546 = CARTESIAN_POINT('',(39.351096215562,-7.191910221088,
    315.97511551974));
#547 = CARTESIAN_POINT('',(39.282000452544,-7.551380738067,
    315.4373382846));
#548 = CARTESIAN_POINT('',(39.153846522106,-8.190869664065,
    314.29099105178));
#549 = CARTESIAN_POINT('',(39.095862188241,-8.463283228449,
    313.67974258942));
#550 = CARTESIAN_POINT('',(39.047980876326,-8.679041209361,
    313.05569703998));
#551 = CARTESIAN_POINT('',(39.011352748304,-8.839761106493,
    312.42268010567));
#552 = CARTESIAN_POINT('',(38.986690576792,-8.946562223163,
    311.7838578489));
#553 = CARTESIAN_POINT('',(38.97435053981,-9.,311.14205641669));
#554 = CARTESIAN_POINT('',(38.97435053981,-9.,310.5));
#555 = ORIENTED_EDGE('',*,*,#556,.T.);
#556 = EDGE_CURVE('',#532,#557,#559,.T.);
#557 = VERTEX_POINT('',#558);
#558 = CARTESIAN_POINT('',(40.,0.,325.));
#559 = LINE('',#560,#561);
#560 = CARTESIAN_POINT('',(40.,0.,247.));
#561 = VECTOR('',#562,1.);
#562 = DIRECTION('',(0.,0.,1.));
#563 = ORIENTED_EDGE('',*,*,#564,.F.);
#564 = EDGE_CURVE('',#557,#557,#565,.T.);
#565 = CIRCLE('',#566,40.);
#566 = AXIS2_PLACEMENT_3D('',#567,#568,#569);
#567 = CARTESIAN_POINT('',(0.,0.,325.));
#568 = DIRECTION('',(0.,0.,1.));
#569 = DIRECTION('',(1.,0.,-0.));
#570 = ORIENTED_EDGE('',*,*,#556,.F.);
#571 = ORIENTED_EDGE('',*,*,#572,.F.);
#572 = EDGE_CURVE('',#573,#532,#575,.T.);
#573 = VERTEX_POINT('',#574);
#574 = CARTESIAN_POINT('',(38.97435053981,9.,310.5));
#575 = B_SPLINE_CURVE_WITH_KNOTS('',7,(#576,#577,#578,#579,#580,#581,
    #582,#583,#584,#585,#586,#587,#588,#589,#590,#591,#592,#593,#594,
    #595),.UNSPECIFIED.,.F.,.F.,(8,6,6,8),(0.,0.429388952309,
    0.824298275085,1.),.UNSPECIFIED.);
#576 = CARTESIAN_POINT('',(38.97435053981,9.,310.5));
#577 = CARTESIAN_POINT('',(38.97435053981,9.,311.24853901853));
#578 = CARTESIAN_POINT('',(38.991122843879,8.92736787981,311.9965156544)
  );
#579 = CARTESIAN_POINT('',(39.024623230738,8.782294675937,
    312.73977401502));
#580 = CARTESIAN_POINT('',(39.07419812507,8.563722666057,313.47392446362
    ));
#581 = CARTESIAN_POINT('',(39.138554260078,8.269524995125,
    314.19382923186));
#582 = CARTESIAN_POINT('',(39.215521526012,7.89667638043,314.89288845403
    ));
#583 = CARTESIAN_POINT('',(39.380974581058,7.022847190965,316.1774660389
    ));
#584 = CARTESIAN_POINT('',(39.468387209233,6.532719999435,
    316.77029911971));
#585 = CARTESIAN_POINT('',(39.561267680294,5.968006140164,
    317.33178801418));
#586 = CARTESIAN_POINT('',(39.65580365315,5.326142905142,317.85110687461
    ));
#587 = CARTESIAN_POINT('',(39.746917433921,4.605538019366,
    318.31509153502));
#588 = CARTESIAN_POINT('',(39.8281274816,3.806387324739,318.70770118963)
  );
#589 = CARTESIAN_POINT('',(39.920970470352,2.543266972694,
    319.14297575022));
#590 = CARTESIAN_POINT('',(39.946159060519,2.140064003734,
    319.25871650789));
#591 = CARTESIAN_POINT('',(39.967199549233,1.724977935957,
    319.35381890116));
#592 = CARTESIAN_POINT('',(39.983457904421,1.300615956678,
    319.42648031559));
#593 = CARTESIAN_POINT('',(39.994474847721,0.86974784908,319.4754434552)
  );
#594 = CARTESIAN_POINT('',(40.,0.435241954177,319.5));
#595 = CARTESIAN_POINT('',(40.,1.019797001577E-14,319.5));
#596 = ORIENTED_EDGE('',*,*,#597,.F.);
#597 = EDGE_CURVE('',#598,#573,#600,.T.);
#598 = VERTEX_POINT('',#599);
#599 = CARTESIAN_POINT('',(38.97435053981,9.,261.5));
#600 = LINE('',#601,#602);
#601 = CARTESIAN_POINT('',(38.97435053981,9.,247.));
#602 = VECTOR('',#603,1.);
#603 = DIRECTION('',(0.,0.,1.));
#604 = ORIENTED_EDGE('',*,*,#605,.F.);
#605 = EDGE_CURVE('',#489,#598,#606,.T.);
#606 = B_SPLINE_CURVE_WITH_KNOTS('',7,(#607,#608,#609,#610,#611,#612,
    #613,#614,#615,#616,#617,#618,#619,#620,#621,#622,#623,#624,#625,
    #626),.UNSPECIFIED.,.F.,.F.,(8,6,6,8),(0.,0.288669399496,
    0.631681735399,1.),.UNSPECIFIED.);
#607 = CARTESIAN_POINT('',(40.,3.445711829034E-15,252.5));
#608 = CARTESIAN_POINT('',(40.,0.717646249601,252.5));
#609 = CARTESIAN_POINT('',(39.984978598541,1.42875611905,252.5667611798)
  );
#610 = CARTESIAN_POINT('',(39.955429057315,2.123196535971,
    252.69809567307));
#611 = CARTESIAN_POINT('',(39.913071538898,2.791267589918,
    252.88930463854));
#612 = CARTESIAN_POINT('',(39.860724292015,3.424226979541,
    253.13328559108));
#613 = CARTESIAN_POINT('',(39.801758446124,4.014761082277,
    253.42054297165));
#614 = CARTESIAN_POINT('',(39.665593886327,5.202097610531,254.1177770617
    ));
#615 = CARTESIAN_POINT('',(39.586200674789,5.786580084528,
    254.54503788669));
#616 = CARTESIAN_POINT('',(39.505311678708,6.311728236803,
    255.01044085388));
#617 = CARTESIAN_POINT('',(39.426138306888,6.7794263957,255.50583865141)
  );
#618 = CARTESIAN_POINT('',(39.351096215562,7.191910221089,
    256.02488448025));
#619 = CARTESIAN_POINT('',(39.282000452544,7.551380738067,
    256.56266171539));
#620 = CARTESIAN_POINT('',(39.153846522106,8.190869664065,
    257.70900894821));
#621 = CARTESIAN_POINT('',(39.095862188241,8.46328322845,258.32025741057
    ));
#622 = CARTESIAN_POINT('',(39.047980876326,8.679041209361,
    258.94430296001));
#623 = CARTESIAN_POINT('',(39.011352748304,8.839761106493,
    259.57731989432));
#624 = CARTESIAN_POINT('',(38.986690576792,8.946562223163,
    260.21614215109));
#625 = CARTESIAN_POINT('',(38.97435053981,9.,260.8579435833));
#626 = CARTESIAN_POINT('',(38.97435053981,9.,261.5));
#627 = CYLINDRICAL_SURFACE('',#628,40.);
#628 = AXIS2_PLACEMENT_3D('',#629,#630,#631);
#629 = CARTESIAN_POINT('',(0.,0.,247.));
#630 = DIRECTION('',(0.,0.,1.));
#631 = DIRECTION('',(1.,0.,-0.));
#632 = ADVANCED_FACE('',(#633),#660,.F.);
#633 = FACE_BOUND('',#634,.F.);
#634 = EDGE_LOOP('',(#635,#636,#644,#653,#659));
#635 = ORIENTED_EDGE('',*,*,#498,.F.);
#636 = ORIENTED_EDGE('',*,*,#637,.F.);
#637 = EDGE_CURVE('',#638,#499,#640,.T.);
#638 = VERTEX_POINT('',#639);
#639 = CARTESIAN_POINT('',(33.,-9.,261.5));
#640 = LINE('',#641,#642);
#641 = CARTESIAN_POINT('',(33.,-9.,261.5));
#642 = VECTOR('',#643,1.);
#643 = DIRECTION('',(1.,0.,-0.));
#644 = ORIENTED_EDGE('',*,*,#645,.T.);
#645 = EDGE_CURVE('',#638,#646,#648,.T.);
#646 = VERTEX_POINT('',#647);
#647 = CARTESIAN_POINT('',(33.,9.,261.5));
#648 = CIRCLE('',#649,9.);
#649 = AXIS2_PLACEMENT_3D('',#650,#651,#652);
#650 = CARTESIAN_POINT('',(33.,0.,261.5));
#651 = DIRECTION('',(1.,0.,0.));
#652 = DIRECTION('',(-0.,0.,1.));
#653 = ORIENTED_EDGE('',*,*,#654,.T.);
#654 = EDGE_CURVE('',#646,#598,#655,.T.);
#655 = LINE('',#656,#657);
#656 = CARTESIAN_POINT('',(33.,9.,261.5));
#657 = VECTOR('',#658,1.);
#658 = DIRECTION('',(1.,0.,-0.));
#659 = ORIENTED_EDGE('',*,*,#605,.F.);
#660 = CYLINDRICAL_SURFACE('',#661,9.);
#661 = AXIS2_PLACEMENT_3D('',#662,#663,#664);
#662 = CARTESIAN_POINT('',(33.,0.,261.5));
#663 = DIRECTION('',(1.,0.,0.));
#664 = DIRECTION('',(-0.,0.,1.));
#665 = ADVANCED_FACE('',(#666),#684,.F.);
#666 = FACE_BOUND('',#667,.F.);
#667 = EDGE_LOOP('',(#668,#669,#677,#683));
#668 = ORIENTED_EDGE('',*,*,#654,.F.);
#669 = ORIENTED_EDGE('',*,*,#670,.T.);
#670 = EDGE_CURVE('',#646,#671,#673,.T.);
#671 = VERTEX_POINT('',#672);
#672 = CARTESIAN_POINT('',(33.,9.,310.5));
#673 = LINE('',#674,#675);
#674 = CARTESIAN_POINT('',(33.,9.,261.5));
#675 = VECTOR('',#676,1.);
#676 = DIRECTION('',(0.,0.,1.));
#677 = ORIENTED_EDGE('',*,*,#678,.T.);
#678 = EDGE_CURVE('',#671,#573,#679,.T.);
#679 = LINE('',#680,#681);
#680 = CARTESIAN_POINT('',(33.,9.,310.5));
#681 = VECTOR('',#682,1.);
#682 = DIRECTION('',(1.,0.,-0.));
#683 = ORIENTED_EDGE('',*,*,#597,.F.);
#684 = PLANE('',#685);
#685 = AXIS2_PLACEMENT_3D('',#686,#687,#688);
#686 = CARTESIAN_POINT('',(33.,9.,261.5));
#687 = DIRECTION('',(-0.,1.,0.));
#688 = DIRECTION('',(0.,0.,1.));
#689 = ADVANCED_FACE('',(#690),#719,.F.);
#690 = FACE_BOUND('',#691,.F.);
#691 = EDGE_LOOP('',(#692,#693,#694,#703,#712,#718));
#692 = ORIENTED_EDGE('',*,*,#572,.F.);
#693 = ORIENTED_EDGE('',*,*,#678,.F.);
#694 = ORIENTED_EDGE('',*,*,#695,.T.);
#695 = EDGE_CURVE('',#671,#696,#698,.T.);
#696 = VERTEX_POINT('',#697);
#697 = CARTESIAN_POINT('',(33.,2.204364238465E-15,319.5));
#698 = CIRCLE('',#699,9.);
#699 = AXIS2_PLACEMENT_3D('',#700,#701,#702);
#700 = CARTESIAN_POINT('',(33.,0.,310.5));
#701 = DIRECTION('',(1.,0.,0.));
#702 = DIRECTION('',(-0.,0.,1.));
#703 = ORIENTED_EDGE('',*,*,#704,.T.);
#704 = EDGE_CURVE('',#696,#705,#707,.T.);
#705 = VERTEX_POINT('',#706);
#706 = CARTESIAN_POINT('',(33.,-9.,310.5));
#707 = CIRCLE('',#708,9.);
#708 = AXIS2_PLACEMENT_3D('',#709,#710,#711);
#709 = CARTESIAN_POINT('',(33.,0.,310.5));
#710 = DIRECTION('',(1.,0.,0.));
#711 = DIRECTION('',(-0.,0.,1.));
#712 = ORIENTED_EDGE('',*,*,#713,.T.);
#713 = EDGE_CURVE('',#705,#524,#714,.T.);
#714 = LINE('',#715,#716);
#715 = CARTESIAN_POINT('',(33.,-9.,310.5));
#716 = VECTOR('',#717,1.);
#717 = DIRECTION('',(1.,0.,-0.));
#718 = ORIENTED_EDGE('',*,*,#531,.F.);
#719 = CYLINDRICAL_SURFACE('',#720,9.);
#720 = AXIS2_PLACEMENT_3D('',#721,#722,#723);
#721 = CARTESIAN_POINT('',(33.,0.,310.5));
#722 = DIRECTION('',(1.,0.,0.));
#723 = DIRECTION('',(-0.,0.,1.));
#724 = ADVANCED_FACE('',(#725,#728),#739,.T.);
#725 = FACE_BOUND('',#726,.T.);
#726 = EDGE_LOOP('',(#727));
#727 = ORIENTED_EDGE('',*,*,#564,.T.);
#728 = FACE_BOUND('',#729,.T.);
#729 = EDGE_LOOP('',(#730));
#730 = ORIENTED_EDGE('',*,*,#731,.F.);
#731 = EDGE_CURVE('',#732,#732,#734,.T.);
#732 = VERTEX_POINT('',#733);
#733 = CARTESIAN_POINT('',(35.,0.,325.));
#734 = CIRCLE('',#735,35.);
#735 = AXIS2_PLACEMENT_3D('',#736,#737,#738);
#736 = CARTESIAN_POINT('',(0.,0.,325.));
#737 = DIRECTION('',(0.,0.,1.));
#738 = DIRECTION('',(1.,0.,-0.));
#739 = PLANE('',#740);
#740 = AXIS2_PLACEMENT_3D('',#741,#742,#743);
#741 = CARTESIAN_POINT('',(0.,0.,325.));
#742 = DIRECTION('',(0.,0.,1.));
#743 = DIRECTION('',(1.,0.,-0.));
#744 = ADVANCED_FACE('',(#745),#756,.T.);
#745 = FACE_BOUND('',#746,.T.);
#746 = EDGE_LOOP('',(#747,#748,#754,#755));
#747 = ORIENTED_EDGE('',*,*,#637,.F.);
#748 = ORIENTED_EDGE('',*,*,#749,.T.);
#749 = EDGE_CURVE('',#638,#705,#750,.T.);
#750 = LINE('',#751,#752);
#751 = CARTESIAN_POINT('',(33.,-9.,261.5));
#752 = VECTOR('',#753,1.);
#753 = DIRECTION('',(0.,0.,1.));
#754 = ORIENTED_EDGE('',*,*,#713,.T.);
#755 = ORIENTED_EDGE('',*,*,#523,.F.);
#756 = PLANE('',#757);
#757 = AXIS2_PLACEMENT_3D('',#758,#759,#760);
#758 = CARTESIAN_POINT('',(33.,-9.,261.5));
#759 = DIRECTION('',(-0.,1.,0.));
#760 = DIRECTION('',(0.,0.,1.));
#761 = ADVANCED_FACE('',(#762),#769,.F.);
#762 = FACE_BOUND('',#763,.F.);
#763 = EDGE_LOOP('',(#764,#765,#766,#767,#768));
#764 = ORIENTED_EDGE('',*,*,#749,.T.);
#765 = ORIENTED_EDGE('',*,*,#704,.F.);
#766 = ORIENTED_EDGE('',*,*,#695,.F.);
#767 = ORIENTED_EDGE('',*,*,#670,.F.);
#768 = ORIENTED_EDGE('',*,*,#645,.F.);
#769 = PLANE('',#770);
#770 = AXIS2_PLACEMENT_3D('',#771,#772,#773);
#771 = CARTESIAN_POINT('',(33.,1.858205485013E-16,286.25837480871));
#772 = DIRECTION('',(-1.,-0.,-0.));
#773 = DIRECTION('',(0.,0.,-1.));
#774 = ADVANCED_FACE('',(#775),#794,.T.);
#775 = FACE_BOUND('',#776,.T.);
#776 = EDGE_LOOP('',(#777,#778,#786,#793));
#777 = ORIENTED_EDGE('',*,*,#731,.T.);
#778 = ORIENTED_EDGE('',*,*,#779,.T.);
#779 = EDGE_CURVE('',#732,#780,#782,.T.);
#780 = VERTEX_POINT('',#781);
#781 = CARTESIAN_POINT('',(35.,0.,345.));
#782 = LINE('',#783,#784);
#783 = CARTESIAN_POINT('',(35.,0.,325.));
#784 = VECTOR('',#785,1.);
#785 = DIRECTION('',(0.,0.,1.));
#786 = ORIENTED_EDGE('',*,*,#787,.F.);
#787 = EDGE_CURVE('',#780,#780,#788,.T.);
#788 = CIRCLE('',#789,35.);
#789 = AXIS2_PLACEMENT_3D('',#790,#791,#792);
#790 = CARTESIAN_POINT('',(0.,0.,345.));
#791 = DIRECTION('',(0.,0.,1.));
#792 = DIRECTION('',(1.,0.,-0.));
#793 = ORIENTED_EDGE('',*,*,#779,.F.);
#794 = CYLINDRICAL_SURFACE('',#795,35.);
#795 = AXIS2_PLACEMENT_3D('',#796,#797,#798);
#796 = CARTESIAN_POINT('',(0.,0.,325.));
#797 = DIRECTION('',(0.,0.,1.));
#798 = DIRECTION('',(1.,0.,-0.));
#799 = ADVANCED_FACE('',(#800,#803),#814,.T.);
#800 = FACE_BOUND('',#801,.T.);
#801 = EDGE_LOOP('',(#802));
#802 = ORIENTED_EDGE('',*,*,#787,.T.);
#803 = FACE_BOUND('',#804,.T.);
#804 = EDGE_LOOP('',(#805));
#805 = ORIENTED_EDGE('',*,*,#806,.F.);
#806 = EDGE_CURVE('',#807,#807,#809,.T.);
#807 = VERTEX_POINT('',#808);
#808 = CARTESIAN_POINT('',(30.,0.,345.));
#809 = CIRCLE('',#810,30.);
#810 = AXIS2_PLACEMENT_3D('',#811,#812,#813);
#811 = CARTESIAN_POINT('',(0.,0.,345.));
#812 = DIRECTION('',(0.,0.,1.));
#813 = DIRECTION('',(1.,0.,-0.));
#814 = PLANE('',#815);
#815 = AXIS2_PLACEMENT_3D('',#816,#817,#818);
#816 = CARTESIAN_POINT('',(0.,0.,345.));
#817 = DIRECTION('',(0.,0.,1.));
#818 = DIRECTION('',(1.,0.,-0.));
#819 = ADVANCED_FACE('',(#820),#839,.T.);
#820 = FACE_BOUND('',#821,.T.);
#821 = EDGE_LOOP('',(#822,#823,#831,#838));
#822 = ORIENTED_EDGE('',*,*,#806,.T.);
#823 = ORIENTED_EDGE('',*,*,#824,.T.);
#824 = EDGE_CURVE('',#807,#825,#827,.T.);
#825 = VERTEX_POINT('',#826);
#826 = CARTESIAN_POINT('',(30.,0.,378.));
#827 = LINE('',#828,#829);
#828 = CARTESIAN_POINT('',(30.,0.,345.));
#829 = VECTOR('',#830,1.);
#830 = DIRECTION('',(0.,0.,1.));
#831 = ORIENTED_EDGE('',*,*,#832,.F.);
#832 = EDGE_CURVE('',#825,#825,#833,.T.);
#833 = CIRCLE('',#834,30.);
#834 = AXIS2_PLACEMENT_3D('',#835,#836,#837);
#835 = CARTESIAN_POINT('',(0.,0.,378.));
#836 = DIRECTION('',(0.,0.,1.));
#837 = DIRECTION('',(1.,0.,-0.));
#838 = ORIENTED_EDGE('',*,*,#824,.F.);
#839 = CYLINDRICAL_SURFACE('',#840,30.);
#840 = AXIS2_PLACEMENT_3D('',#841,#842,#843);
#841 = CARTESIAN_POINT('',(0.,0.,345.));
#842 = DIRECTION('',(0.,0.,1.));
#843 = DIRECTION('',(1.,0.,-0.));
#844 = ADVANCED_FACE('',(#845),#864,.T.);
#845 = FACE_BOUND('',#846,.T.);
#846 = EDGE_LOOP('',(#847,#848,#856,#863));
#847 = ORIENTED_EDGE('',*,*,#832,.T.);
#848 = ORIENTED_EDGE('',*,*,#849,.T.);
#849 = EDGE_CURVE('',#825,#850,#852,.T.);
#850 = VERTEX_POINT('',#851);
#851 = CARTESIAN_POINT('',(28.,0.,380.));
#852 = LINE('',#853,#854);
#853 = CARTESIAN_POINT('',(30.,0.,378.));
#854 = VECTOR('',#855,1.);
#855 = DIRECTION('',(-0.707106781187,0.,0.707106781187));
#856 = ORIENTED_EDGE('',*,*,#857,.F.);
#857 = EDGE_CURVE('',#850,#850,#858,.T.);
#858 = CIRCLE('',#859,28.);
#859 = AXIS2_PLACEMENT_3D('',#860,#861,#862);
#860 = CARTESIAN_POINT('',(0.,0.,380.));
#861 = DIRECTION('',(0.,0.,1.));
#862 = DIRECTION('',(1.,0.,-0.));
#863 = ORIENTED_EDGE('',*,*,#849,.F.);
#864 = CONICAL_SURFACE('',#865,30.,0.785398163397);
#865 = AXIS2_PLACEMENT_3D('',#866,#867,#868);
#866 = CARTESIAN_POINT('',(0.,0.,378.));
#867 = DIRECTION('',(-0.,-0.,-1.));
#868 = DIRECTION('',(1.,0.,-0.));
#869 = ADVANCED_FACE('',(#870),#873,.T.);
#870 = FACE_BOUND('',#871,.T.);
#871 = EDGE_LOOP('',(#872));
#872 = ORIENTED_EDGE('',*,*,#857,.T.);
#873 = PLANE('',#874);
#874 = AXIS2_PLACEMENT_3D('',#875,#876,#877);
#875 = CARTESIAN_POINT('',(0.,0.,380.));
#876 = DIRECTION('',(0.,0.,1.));
#877 = DIRECTION('',(1.,0.,-0.));
#878 = ( GEOMETRIC_REPRESENTATION_CONTEXT(3) 
GLOBAL_UNCERTAINTY_ASSIGNED_CONTEXT((#882)) GLOBAL_UNIT_ASSIGNED_CONTEXT
((#879,#880,#881)) REPRESENTATION_CONTEXT('Context #1',
  '3D Context with UNIT and UNCERTAINTY') );
#879 = ( LENGTH_UNIT() NAMED_UNIT(*) SI_UNIT(.MILLI.,.METRE.) );
#880 = ( NAMED_UNIT(*) PLANE_ANGLE_UNIT() SI_UNIT($,.RADIAN.) );
#881 = ( NAMED_UNIT(*) SI_UNIT($,.STERADIAN.) SOLID_ANGLE_UNIT() );
#882 = UNCERTAINTY_MEASURE_WITH_UNIT(LENGTH_MEASURE(1.E-07),#879,
  'distance_accuracy_value','confusion accuracy');
#883 = PRODUCT_RELATED_PRODUCT_CATEGORY('part',$,(#7));
ENDSEC;
END-ISO-10303-21;
