ISO-10303-21;
HEADER;
FILE_DESCRIPTION(('FreeCAD Model'),'2;1');
FILE_NAME('Open CASCADE Shape Model','2026-09-27T12:24:55',('FreeCAD'),(
    'FreeCAD'),'Open CASCADE STEP processor 7.8','FreeCAD','Unknown');
FILE_SCHEMA(('AUTOMOTIVE_DESIGN { 1 0 10303 214 1 1 1 1 }'));
ENDSEC;
DATA;
#1 = APPLICATION_PROTOCOL_DEFINITION('international standard',
  'automotive_design',2000,#2);
#2 = APPLICATION_CONTEXT(
  'core data for automotive mechanical design processes');
#3 = SHAPE_DEFINITION_REPRESENTATION(#4,#10);
#4 = PRODUCT_DEFINITION_SHAPE('','',#5);
#5 = PRODUCT_DEFINITION('design','',#6,#9);
#6 = PRODUCT_DEFINITION_FORMATION('','',#7);
#7 = PRODUCT('Open CASCADE STEP translator 7.8 12',
  'Open CASCADE STEP translator 7.8 12','',(#8));
#8 = PRODUCT_CONTEXT('',#2,'mechanical');
#9 = PRODUCT_DEFINITION_CONTEXT('part definition',#2,'design');
#10 = ADVANCED_BREP_SHAPE_REPRESENTATION('',(#11,#15),#414);
#11 = AXIS2_PLACEMENT_3D('',#12,#13,#14);
#12 = CARTESIAN_POINT('',(0.,0.,0.));
#13 = DIRECTION('',(0.,0.,1.));
#14 = DIRECTION('',(1.,0.,-0.));
#15 = MANIFOLD_SOLID_BREP('',#16);
#16 = CLOSED_SHELL('',(#17,#50,#144,#169,#248,#273,#298,#340,#365,#377,
    #397));
#17 = ADVANCED_FACE('',(#18),#45,.T.);
#18 = FACE_BOUND('',#19,.T.);
#19 = EDGE_LOOP('',(#20,#30,#37,#38));
#20 = ORIENTED_EDGE('',*,*,#21,.F.);
#21 = EDGE_CURVE('',#22,#24,#26,.T.);
#22 = VERTEX_POINT('',#23);
#23 = CARTESIAN_POINT('',(18.5,0.,0.));
#24 = VERTEX_POINT('',#25);
#25 = CARTESIAN_POINT('',(19.5,0.,1.));
#26 = LINE('',#27,#28);
#27 = CARTESIAN_POINT('',(18.5,0.,0.));
#28 = VECTOR('',#29,1.);
#29 = DIRECTION('',(0.707106781187,0.,0.707106781187));
#30 = ORIENTED_EDGE('',*,*,#31,.T.);
#31 = EDGE_CURVE('',#22,#22,#32,.T.);
#32 = CIRCLE('',#33,18.5);
#33 = AXIS2_PLACEMENT_3D('',#34,#35,#36);
#34 = CARTESIAN_POINT('',(0.,0.,0.));
#35 = DIRECTION('',(0.,0.,1.));
#36 = DIRECTION('',(1.,0.,-0.));
#37 = ORIENTED_EDGE('',*,*,#21,.T.);
#38 = ORIENTED_EDGE('',*,*,#39,.F.);
#39 = EDGE_CURVE('',#24,#24,#40,.T.);
#40 = CIRCLE('',#41,19.5);
#41 = AXIS2_PLACEMENT_3D('',#42,#43,#44);
#42 = CARTESIAN_POINT('',(0.,0.,1.));
#43 = DIRECTION('',(0.,0.,1.));
#44 = DIRECTION('',(1.,0.,-0.));
#45 = CONICAL_SURFACE('',#46,18.5,0.785398163397);
#46 = AXIS2_PLACEMENT_3D('',#47,#48,#49);
#47 = CARTESIAN_POINT('',(0.,0.,0.));
#48 = DIRECTION('',(0.,0.,1.));
#49 = DIRECTION('',(1.,0.,-0.));
#50 = ADVANCED_FACE('',(#51),#139,.T.);
#51 = FACE_BOUND('',#52,.T.);
#52 = EDGE_LOOP('',(#53,#61,#62,#63,#94,#102,#109,#110));
#53 = ORIENTED_EDGE('',*,*,#54,.F.);
#54 = EDGE_CURVE('',#24,#55,#57,.T.);
#55 = VERTEX_POINT('',#56);
#56 = CARTESIAN_POINT('',(19.5,3.061616997868E-16,14.5));
#57 = LINE('',#58,#59);
#58 = CARTESIAN_POINT('',(19.5,0.,1.));
#59 = VECTOR('',#60,1.);
#60 = DIRECTION('',(0.,0.,1.));
#61 = ORIENTED_EDGE('',*,*,#39,.T.);
#62 = ORIENTED_EDGE('',*,*,#54,.T.);
#63 = ORIENTED_EDGE('',*,*,#64,.T.);
#64 = EDGE_CURVE('',#55,#65,#67,.T.);
#65 = VERTEX_POINT('',#66);
#66 = CARTESIAN_POINT('',(19.5,0.,19.5));
#67 = B_SPLINE_CURVE_WITH_KNOTS('',7,(#68,#69,#70,#71,#72,#73,#74,#75,
    #76,#77,#78,#79,#80,#81,#82,#83,#84,#85,#86,#87,#88,#89,#90,#91,#92,
    #93),.UNSPECIFIED.,.F.,.F.,(8,6,6,6,8),(0.,0.244371156231,
    0.500041753101,0.755729616844,1.),.UNSPECIFIED.);
#68 = CARTESIAN_POINT('',(19.5,-8.881784197001E-16,14.5));
#69 = CARTESIAN_POINT('',(19.5,-0.333884150064,14.5));
#70 = CARTESIAN_POINT('',(19.493330236627,-0.658097124674,
    14.552022713418));
#71 = CARTESIAN_POINT('',(19.480686972893,-0.963359685084,14.65064803724
    ));
#72 = CARTESIAN_POINT('',(19.463830326158,-1.242099165509,
    14.788815305677));
#73 = CARTESIAN_POINT('',(19.445105374208,-1.48865198056,14.957870051006
    ));
#74 = CARTESIAN_POINT('',(19.426574609059,-1.699789016171,
    15.147667526978));
#75 = CARTESIAN_POINT('',(19.391880643986,-2.058880725281,
    15.554977118927));
#76 = CARTESIAN_POINT('',(19.375358992948,-2.208715903376,
    15.779324085183));
#77 = CARTESIAN_POINT('',(19.361245550264,-2.326394668316,
    16.014361170589));
#78 = CARTESIAN_POINT('',(19.350265534377,-2.4134706404,16.256397749951)
  );
#79 = CARTESIAN_POINT('',(19.342811977585,-2.471127548696,
    16.502744299349));
#80 = CARTESIAN_POINT('',(19.339079605814,-2.5,16.751261533579));
#81 = CARTESIAN_POINT('',(19.339079605814,-2.5,17.248755265129));
#82 = CARTESIAN_POINT('',(19.342812470275,-2.47112371078,17.497269803689
    ));
#83 = CARTESIAN_POINT('',(19.350266020824,-2.413466950862,
    17.743606978432));
#84 = CARTESIAN_POINT('',(19.361245472088,-2.326394607022,
    17.985636432843));
#85 = CARTESIAN_POINT('',(19.375358729688,-2.208718428641,
    18.220672445194));
#86 = CARTESIAN_POINT('',(19.391880555156,-2.058881644703,
    18.445021838193));
#87 = CARTESIAN_POINT('',(19.426566557555,-1.699872351362,
    18.852237947803));
#88 = CARTESIAN_POINT('',(19.445099001342,-1.488736287997,19.04208156631
    ));
#89 = CARTESIAN_POINT('',(19.463832550657,-1.242105178969,
    19.211216685128));
#90 = CARTESIAN_POINT('',(19.480696739581,-0.963247130676,19.34942829568
    ));
#91 = CARTESIAN_POINT('',(19.493337584751,-0.657894728692,
    19.448034516672));
#92 = CARTESIAN_POINT('',(19.5,-0.333700267896,19.5));
#93 = CARTESIAN_POINT('',(19.5,-8.881784197001E-16,19.5));
#94 = ORIENTED_EDGE('',*,*,#95,.T.);
#95 = EDGE_CURVE('',#65,#96,#98,.T.);
#96 = VERTEX_POINT('',#97);
#97 = CARTESIAN_POINT('',(19.5,0.,33.));
#98 = LINE('',#99,#100);
#99 = CARTESIAN_POINT('',(19.5,0.,1.));
#100 = VECTOR('',#101,1.);
#101 = DIRECTION('',(0.,0.,1.));
#102 = ORIENTED_EDGE('',*,*,#103,.F.);
#103 = EDGE_CURVE('',#96,#96,#104,.T.);
#104 = CIRCLE('',#105,19.5);
#105 = AXIS2_PLACEMENT_3D('',#106,#107,#108);
#106 = CARTESIAN_POINT('',(0.,0.,33.));
#107 = DIRECTION('',(0.,0.,1.));
#108 = DIRECTION('',(1.,0.,-0.));
#109 = ORIENTED_EDGE('',*,*,#95,.F.);
#110 = ORIENTED_EDGE('',*,*,#111,.T.);
#111 = EDGE_CURVE('',#65,#55,#112,.T.);
#112 = B_SPLINE_CURVE_WITH_KNOTS('',7,(#113,#114,#115,#116,#117,#118,
    #119,#120,#121,#122,#123,#124,#125,#126,#127,#128,#129,#130,#131,
    #132,#133,#134,#135,#136,#137,#138),.UNSPECIFIED.,.F.,.F.,(8,6,6,6,8
    ),(0.,0.244375637735,0.500052203664,0.755728769593,1.),
  .UNSPECIFIED.);
#113 = CARTESIAN_POINT('',(19.5,1.512253687044E-15,19.5));
#114 = CARTESIAN_POINT('',(19.5,0.333884150064,19.5));
#115 = CARTESIAN_POINT('',(19.493330236627,0.658097124674,
    19.447977286582));
#116 = CARTESIAN_POINT('',(19.480686972893,0.963359685084,19.34935196276
    ));
#117 = CARTESIAN_POINT('',(19.463830326158,1.242099165509,
    19.211184694323));
#118 = CARTESIAN_POINT('',(19.445105374208,1.48865198056,19.042129948994
    ));
#119 = CARTESIAN_POINT('',(19.426574609059,1.699789016171,
    18.852332473022));
#120 = CARTESIAN_POINT('',(19.391880555156,2.058881644703,
    18.445021838194));
#121 = CARTESIAN_POINT('',(19.375358729688,2.208718428641,
    18.220672445194));
#122 = CARTESIAN_POINT('',(19.361245472088,2.326394607022,
    17.985636432843));
#123 = CARTESIAN_POINT('',(19.350266020824,2.413466950862,
    17.743606978431));
#124 = CARTESIAN_POINT('',(19.342812470275,2.47112371078,17.497269803689
    ));
#125 = CARTESIAN_POINT('',(19.339079605814,2.5,17.248755265129));
#126 = CARTESIAN_POINT('',(19.339079605814,2.5,16.751244734871));
#127 = CARTESIAN_POINT('',(19.342812470275,2.471123710779,
    16.502730196311));
#128 = CARTESIAN_POINT('',(19.350266020824,2.413466950863,
    16.256393021568));
#129 = CARTESIAN_POINT('',(19.361245472088,2.326394607022,
    16.014363567157));
#130 = CARTESIAN_POINT('',(19.375358729688,2.208718428641,
    15.779327554806));
#131 = CARTESIAN_POINT('',(19.391880555156,2.058881644703,
    15.554978161807));
#132 = CARTESIAN_POINT('',(19.426567365189,1.699863992146,
    15.147752570528));
#133 = CARTESIAN_POINT('',(19.445100252104,1.488721505163,
    14.957906391363));
#134 = CARTESIAN_POINT('',(19.463833356143,1.242091451234,
    14.788778183183));
#135 = CARTESIAN_POINT('',(19.480696266335,0.963245292646,
    14.650575687397));
#136 = CARTESIAN_POINT('',(19.49333676989,0.657908824919,14.551971730873
    ));
#137 = CARTESIAN_POINT('',(19.5,0.333720522551,14.5));
#138 = CARTESIAN_POINT('',(19.5,1.416384724412E-15,14.5));
#139 = CYLINDRICAL_SURFACE('',#140,19.5);
#140 = AXIS2_PLACEMENT_3D('',#141,#142,#143);
#141 = CARTESIAN_POINT('',(0.,0.,1.));
#142 = DIRECTION('',(0.,0.,1.));
#143 = DIRECTION('',(1.,0.,-0.));
#144 = ADVANCED_FACE('',(#145),#164,.F.);
#145 = FACE_BOUND('',#146,.F.);
#146 = EDGE_LOOP('',(#147,#155,#156,#157));
#147 = ORIENTED_EDGE('',*,*,#148,.F.);
#148 = EDGE_CURVE('',#22,#149,#151,.T.);
#149 = VERTEX_POINT('',#150);
#150 = CARTESIAN_POINT('',(17.5,0.,1.));
#151 = LINE('',#152,#153);
#152 = CARTESIAN_POINT('',(18.5,0.,0.));
#153 = VECTOR('',#154,1.);
#154 = DIRECTION('',(-0.707106781187,0.,0.707106781187));
#155 = ORIENTED_EDGE('',*,*,#31,.T.);
#156 = ORIENTED_EDGE('',*,*,#148,.T.);
#157 = ORIENTED_EDGE('',*,*,#158,.F.);
#158 = EDGE_CURVE('',#149,#149,#159,.T.);
#159 = CIRCLE('',#160,17.5);
#160 = AXIS2_PLACEMENT_3D('',#161,#162,#163);
#161 = CARTESIAN_POINT('',(0.,0.,1.));
#162 = DIRECTION('',(0.,0.,1.));
#163 = DIRECTION('',(1.,0.,-0.));
#164 = CONICAL_SURFACE('',#165,18.5,0.785398163397);
#165 = AXIS2_PLACEMENT_3D('',#166,#167,#168);
#166 = CARTESIAN_POINT('',(0.,0.,0.));
#167 = DIRECTION('',(-0.,-0.,-1.));
#168 = DIRECTION('',(1.,0.,-0.));
#169 = ADVANCED_FACE('',(#170),#243,.F.);
#170 = FACE_BOUND('',#171,.F.);
#171 = EDGE_LOOP('',(#172,#205,#211,#212,#213,#214));
#172 = ORIENTED_EDGE('',*,*,#173,.F.);
#173 = EDGE_CURVE('',#174,#176,#178,.T.);
#174 = VERTEX_POINT('',#175);
#175 = CARTESIAN_POINT('',(18.,3.061616997868E-16,14.5));
#176 = VERTEX_POINT('',#177);
#177 = CARTESIAN_POINT('',(18.,0.,19.5));
#178 = B_SPLINE_CURVE_WITH_KNOTS('',7,(#179,#180,#181,#182,#183,#184,
    #185,#186,#187,#188,#189,#190,#191,#192,#193,#194,#195,#196,#197,
    #198,#199,#200,#201,#202,#203,#204),.UNSPECIFIED.,.F.,.F.,(8,6,6,6,8
    ),(0.,0.234310342213,0.50003318506,0.765775664431,1.),
  .UNSPECIFIED.);
#179 = CARTESIAN_POINT('',(18.,-8.881784197001E-16,14.5));
#180 = CARTESIAN_POINT('',(18.,-0.319653624236,14.5));
#181 = CARTESIAN_POINT('',(17.993377208957,-0.630927004541,
    14.547682788127));
#182 = CARTESIAN_POINT('',(17.98075754146,-0.92542305434,14.638551474197
    ));
#183 = CARTESIAN_POINT('',(17.963766659752,-1.196105645895,
    14.766484940627));
#184 = CARTESIAN_POINT('',(17.944635716665,-1.43757399257,
    14.923803896498));
#185 = CARTESIAN_POINT('',(17.925403721169,-1.646557039857,
    15.101355533567));
#186 = CARTESIAN_POINT('',(17.887209350604,-2.021863138567,
    15.501015935708));
#187 = CARTESIAN_POINT('',(17.86804178702,-2.184479133402,
    15.732049317569));
#188 = CARTESIAN_POINT('',(17.851551621693,-2.31204249506,
    15.975329290575));
#189 = CARTESIAN_POINT('',(17.83867966979,-2.406337402478,
    16.226556735356));
#190 = CARTESIAN_POINT('',(17.829927351896,-2.468741660204,
    16.482647519693));
#191 = CARTESIAN_POINT('',(17.825543469976,-2.5,16.741187508191));
#192 = CARTESIAN_POINT('',(17.825543469976,-2.5,17.258831617667));
#193 = CARTESIAN_POINT('',(17.829927981327,-2.468737127627,
    17.517369259165));
#194 = CARTESIAN_POINT('',(17.838680346132,-2.406332701131,
    17.773449428188));
#195 = CARTESIAN_POINT('',(17.851551547276,-2.31204212767,18.02466790429
    ));
#196 = CARTESIAN_POINT('',(17.868041381497,-2.184482574921,
    18.267945677806));
#197 = CARTESIAN_POINT('',(17.88720912972,-2.02186530902,18.498981752995
    ));
#198 = CARTESIAN_POINT('',(17.925396024338,-1.646632670576,
    18.898563927897));
#199 = CARTESIAN_POINT('',(17.944629852262,-1.437648772094,
    19.076155197422));
#200 = CARTESIAN_POINT('',(17.963768860434,-1.196110182469,
    19.233542167944));
#201 = CARTESIAN_POINT('',(17.980766431192,-0.925323689215,
    19.361512632807));
#202 = CARTESIAN_POINT('',(17.993383858104,-0.630750239019,
    19.452365014738));
#203 = CARTESIAN_POINT('',(18.,-0.3194931916,19.5));
#204 = CARTESIAN_POINT('',(18.,-1.33226762955E-15,19.5));
#205 = ORIENTED_EDGE('',*,*,#206,.F.);
#206 = EDGE_CURVE('',#55,#174,#207,.T.);
#207 = LINE('',#208,#209);
#208 = CARTESIAN_POINT('',(20.5,6.123233995737E-16,14.5));
#209 = VECTOR('',#210,1.);
#210 = DIRECTION('',(-1.,0.,-0.));
#211 = ORIENTED_EDGE('',*,*,#64,.T.);
#212 = ORIENTED_EDGE('',*,*,#111,.T.);
#213 = ORIENTED_EDGE('',*,*,#206,.T.);
#214 = ORIENTED_EDGE('',*,*,#215,.F.);
#215 = EDGE_CURVE('',#176,#174,#216,.T.);
#216 = B_SPLINE_CURVE_WITH_KNOTS('',7,(#217,#218,#219,#220,#221,#222,
    #223,#224,#225,#226,#227,#228,#229,#230,#231,#232,#233,#234,#235,
    #236,#237,#238,#239,#240,#241,#242),.UNSPECIFIED.,.F.,.F.,(8,6,6,6,8
    ),(0.,0.234314603939,0.500045171699,0.76577573946,1.),
  .UNSPECIFIED.);
#217 = CARTESIAN_POINT('',(18.,9.571421747317E-16,19.5));
#218 = CARTESIAN_POINT('',(18.,0.319653624214,19.5));
#219 = CARTESIAN_POINT('',(17.993377208958,0.630927004563,19.45231721188
    ));
#220 = CARTESIAN_POINT('',(17.980757541457,0.925423054356,
    19.361448525789));
#221 = CARTESIAN_POINT('',(17.963766659753,1.196105645877,
    19.233515059373));
#222 = CARTESIAN_POINT('',(17.944635716666,1.437573992556,
    19.076196103524));
#223 = CARTESIAN_POINT('',(17.925403721167,1.646557039872,
    18.898644466417));
#224 = CARTESIAN_POINT('',(17.88720912972,2.02186530902,18.498981752995)
  );
#225 = CARTESIAN_POINT('',(17.868041381497,2.184482574921,
    18.267945677806));
#226 = CARTESIAN_POINT('',(17.851551547276,2.31204212767,18.024667904289
    ));
#227 = CARTESIAN_POINT('',(17.838680346132,2.406332701131,
    17.773449428188));
#228 = CARTESIAN_POINT('',(17.829927981327,2.468737127627,
    17.517369259165));
#229 = CARTESIAN_POINT('',(17.825543469976,2.5,17.258831617667));
#230 = CARTESIAN_POINT('',(17.825543469976,2.5,16.741168382333));
#231 = CARTESIAN_POINT('',(17.829927981327,2.468737127627,
    16.482630740835));
#232 = CARTESIAN_POINT('',(17.838680346132,2.406332701131,
    16.226550571813));
#233 = CARTESIAN_POINT('',(17.851551547276,2.31204212767,15.97533209571)
  );
#234 = CARTESIAN_POINT('',(17.868041381497,2.184482574922,
    15.732054322194));
#235 = CARTESIAN_POINT('',(17.88720912972,2.02186530902,15.501018247005)
  );
#236 = CARTESIAN_POINT('',(17.925396820532,1.646624846995,
    15.101427740835));
#237 = CARTESIAN_POINT('',(17.944631111537,1.437634649257,
    14.923833745705));
#238 = CARTESIAN_POINT('',(17.963769728288,1.196096274272,
    14.766452341122));
#239 = CARTESIAN_POINT('',(17.980766136201,0.92531981028,14.638489759698
    ));
#240 = CARTESIAN_POINT('',(17.993383161022,0.630760310776,
    14.547639897492));
#241 = CARTESIAN_POINT('',(18.,0.319509870235,14.5));
#242 = CARTESIAN_POINT('',(18.,1.416384724412E-15,14.5));
#243 = CYLINDRICAL_SURFACE('',#244,2.5);
#244 = AXIS2_PLACEMENT_3D('',#245,#246,#247);
#245 = CARTESIAN_POINT('',(20.5,0.,17.));
#246 = DIRECTION('',(-1.,-0.,-0.));
#247 = DIRECTION('',(0.,0.,-1.));
#248 = ADVANCED_FACE('',(#249),#268,.T.);
#249 = FACE_BOUND('',#250,.T.);
#250 = EDGE_LOOP('',(#251,#259,#260,#261));
#251 = ORIENTED_EDGE('',*,*,#252,.F.);
#252 = EDGE_CURVE('',#96,#253,#255,.T.);
#253 = VERTEX_POINT('',#254);
#254 = CARTESIAN_POINT('',(18.5,0.,34.));
#255 = LINE('',#256,#257);
#256 = CARTESIAN_POINT('',(19.5,0.,33.));
#257 = VECTOR('',#258,1.);
#258 = DIRECTION('',(-0.707106781187,0.,0.707106781187));
#259 = ORIENTED_EDGE('',*,*,#103,.T.);
#260 = ORIENTED_EDGE('',*,*,#252,.T.);
#261 = ORIENTED_EDGE('',*,*,#262,.F.);
#262 = EDGE_CURVE('',#253,#253,#263,.T.);
#263 = CIRCLE('',#264,18.5);
#264 = AXIS2_PLACEMENT_3D('',#265,#266,#267);
#265 = CARTESIAN_POINT('',(0.,0.,34.));
#266 = DIRECTION('',(0.,0.,1.));
#267 = DIRECTION('',(1.,0.,-0.));
#268 = CONICAL_SURFACE('',#269,19.5,0.785398163397);
#269 = AXIS2_PLACEMENT_3D('',#270,#271,#272);
#270 = CARTESIAN_POINT('',(0.,0.,33.));
#271 = DIRECTION('',(-0.,-0.,-1.));
#272 = DIRECTION('',(1.,0.,-0.));
#273 = ADVANCED_FACE('',(#274),#293,.F.);
#274 = FACE_BOUND('',#275,.F.);
#275 = EDGE_LOOP('',(#276,#284,#285,#286));
#276 = ORIENTED_EDGE('',*,*,#277,.F.);
#277 = EDGE_CURVE('',#149,#278,#280,.T.);
#278 = VERTEX_POINT('',#279);
#279 = CARTESIAN_POINT('',(17.5,0.,5.));
#280 = LINE('',#281,#282);
#281 = CARTESIAN_POINT('',(17.5,0.,1.));
#282 = VECTOR('',#283,1.);
#283 = DIRECTION('',(0.,0.,1.));
#284 = ORIENTED_EDGE('',*,*,#158,.T.);
#285 = ORIENTED_EDGE('',*,*,#277,.T.);
#286 = ORIENTED_EDGE('',*,*,#287,.F.);
#287 = EDGE_CURVE('',#278,#278,#288,.T.);
#288 = CIRCLE('',#289,17.5);
#289 = AXIS2_PLACEMENT_3D('',#290,#291,#292);
#290 = CARTESIAN_POINT('',(0.,0.,5.));
#291 = DIRECTION('',(0.,0.,1.));
#292 = DIRECTION('',(1.,0.,-0.));
#293 = CYLINDRICAL_SURFACE('',#294,17.5);
#294 = AXIS2_PLACEMENT_3D('',#295,#296,#297);
#295 = CARTESIAN_POINT('',(0.,0.,1.));
#296 = DIRECTION('',(0.,0.,1.));
#297 = DIRECTION('',(1.,0.,-0.));
#298 = ADVANCED_FACE('',(#299),#335,.F.);
#299 = FACE_BOUND('',#300,.F.);
#300 = EDGE_LOOP('',(#301,#309,#316,#317,#318,#326,#333,#334));
#301 = ORIENTED_EDGE('',*,*,#302,.F.);
#302 = EDGE_CURVE('',#303,#174,#305,.T.);
#303 = VERTEX_POINT('',#304);
#304 = CARTESIAN_POINT('',(18.,0.,5.));
#305 = LINE('',#306,#307);
#306 = CARTESIAN_POINT('',(18.,0.,5.));
#307 = VECTOR('',#308,1.);
#308 = DIRECTION('',(0.,0.,1.));
#309 = ORIENTED_EDGE('',*,*,#310,.T.);
#310 = EDGE_CURVE('',#303,#303,#311,.T.);
#311 = CIRCLE('',#312,18.);
#312 = AXIS2_PLACEMENT_3D('',#313,#314,#315);
#313 = CARTESIAN_POINT('',(0.,0.,5.));
#314 = DIRECTION('',(0.,0.,1.));
#315 = DIRECTION('',(1.,0.,-0.));
#316 = ORIENTED_EDGE('',*,*,#302,.T.);
#317 = ORIENTED_EDGE('',*,*,#173,.T.);
#318 = ORIENTED_EDGE('',*,*,#319,.T.);
#319 = EDGE_CURVE('',#176,#320,#322,.T.);
#320 = VERTEX_POINT('',#321);
#321 = CARTESIAN_POINT('',(18.,0.,29.));
#322 = LINE('',#323,#324);
#323 = CARTESIAN_POINT('',(18.,0.,5.));
#324 = VECTOR('',#325,1.);
#325 = DIRECTION('',(0.,0.,1.));
#326 = ORIENTED_EDGE('',*,*,#327,.F.);
#327 = EDGE_CURVE('',#320,#320,#328,.T.);
#328 = CIRCLE('',#329,18.);
#329 = AXIS2_PLACEMENT_3D('',#330,#331,#332);
#330 = CARTESIAN_POINT('',(0.,0.,29.));
#331 = DIRECTION('',(0.,0.,1.));
#332 = DIRECTION('',(1.,0.,-0.));
#333 = ORIENTED_EDGE('',*,*,#319,.F.);
#334 = ORIENTED_EDGE('',*,*,#215,.T.);
#335 = CYLINDRICAL_SURFACE('',#336,18.);
#336 = AXIS2_PLACEMENT_3D('',#337,#338,#339);
#337 = CARTESIAN_POINT('',(0.,0.,5.));
#338 = DIRECTION('',(0.,0.,1.));
#339 = DIRECTION('',(1.,0.,-0.));
#340 = ADVANCED_FACE('',(#341),#360,.F.);
#341 = FACE_BOUND('',#342,.F.);
#342 = EDGE_LOOP('',(#343,#351,#358,#359));
#343 = ORIENTED_EDGE('',*,*,#344,.F.);
#344 = EDGE_CURVE('',#345,#253,#347,.T.);
#345 = VERTEX_POINT('',#346);
#346 = CARTESIAN_POINT('',(17.5,0.,33.));
#347 = LINE('',#348,#349);
#348 = CARTESIAN_POINT('',(17.5,0.,33.));
#349 = VECTOR('',#350,1.);
#350 = DIRECTION('',(0.707106781187,0.,0.707106781187));
#351 = ORIENTED_EDGE('',*,*,#352,.T.);
#352 = EDGE_CURVE('',#345,#345,#353,.T.);
#353 = CIRCLE('',#354,17.5);
#354 = AXIS2_PLACEMENT_3D('',#355,#356,#357);
#355 = CARTESIAN_POINT('',(0.,0.,33.));
#356 = DIRECTION('',(0.,0.,1.));
#357 = DIRECTION('',(1.,0.,-0.));
#358 = ORIENTED_EDGE('',*,*,#344,.T.);
#359 = ORIENTED_EDGE('',*,*,#262,.F.);
#360 = CONICAL_SURFACE('',#361,17.5,0.785398163397);
#361 = AXIS2_PLACEMENT_3D('',#362,#363,#364);
#362 = CARTESIAN_POINT('',(0.,0.,33.));
#363 = DIRECTION('',(0.,0.,1.));
#364 = DIRECTION('',(1.,0.,-0.));
#365 = ADVANCED_FACE('',(#366,#369),#372,.T.);
#366 = FACE_BOUND('',#367,.F.);
#367 = EDGE_LOOP('',(#368));
#368 = ORIENTED_EDGE('',*,*,#310,.F.);
#369 = FACE_BOUND('',#370,.F.);
#370 = EDGE_LOOP('',(#371));
#371 = ORIENTED_EDGE('',*,*,#287,.T.);
#372 = PLANE('',#373);
#373 = AXIS2_PLACEMENT_3D('',#374,#375,#376);
#374 = CARTESIAN_POINT('',(0.,0.,5.));
#375 = DIRECTION('',(0.,0.,1.));
#376 = DIRECTION('',(1.,0.,-0.));
#377 = ADVANCED_FACE('',(#378,#381),#392,.F.);
#378 = FACE_BOUND('',#379,.F.);
#379 = EDGE_LOOP('',(#380));
#380 = ORIENTED_EDGE('',*,*,#327,.T.);
#381 = FACE_BOUND('',#382,.F.);
#382 = EDGE_LOOP('',(#383));
#383 = ORIENTED_EDGE('',*,*,#384,.F.);
#384 = EDGE_CURVE('',#385,#385,#387,.T.);
#385 = VERTEX_POINT('',#386);
#386 = CARTESIAN_POINT('',(17.5,0.,29.));
#387 = CIRCLE('',#388,17.5);
#388 = AXIS2_PLACEMENT_3D('',#389,#390,#391);
#389 = CARTESIAN_POINT('',(0.,0.,29.));
#390 = DIRECTION('',(0.,0.,1.));
#391 = DIRECTION('',(1.,0.,-0.));
#392 = PLANE('',#393);
#393 = AXIS2_PLACEMENT_3D('',#394,#395,#396);
#394 = CARTESIAN_POINT('',(0.,0.,29.));
#395 = DIRECTION('',(0.,0.,1.));
#396 = DIRECTION('',(1.,0.,-0.));
#397 = ADVANCED_FACE('',(#398),#409,.F.);
#398 = FACE_BOUND('',#399,.F.);
#399 = EDGE_LOOP('',(#400,#401,#407,#408));
#400 = ORIENTED_EDGE('',*,*,#384,.T.);
#401 = ORIENTED_EDGE('',*,*,#402,.T.);
#402 = EDGE_CURVE('',#385,#345,#403,.T.);
#403 = LINE('',#404,#405);
#404 = CARTESIAN_POINT('',(17.5,0.,1.));
#405 = VECTOR('',#406,1.);
#406 = DIRECTION('',(0.,0.,1.));
#407 = ORIENTED_EDGE('',*,*,#352,.F.);
#408 = ORIENTED_EDGE('',*,*,#402,.F.);
#409 = CYLINDRICAL_SURFACE('',#410,17.5);
#410 = AXIS2_PLACEMENT_3D('',#411,#412,#413);
#411 = CARTESIAN_POINT('',(0.,0.,1.));
#412 = DIRECTION('',(0.,0.,1.));
#413 = DIRECTION('',(1.,0.,-0.));
#414 = ( GEOMETRIC_REPRESENTATION_CONTEXT(3) 
GLOBAL_UNCERTAINTY_ASSIGNED_CONTEXT((#418)) GLOBAL_UNIT_ASSIGNED_CONTEXT
((#415,#416,#417)) REPRESENTATION_CONTEXT('Context #1',
  '3D Context with UNIT and UNCERTAINTY') );
#415 = ( LENGTH_UNIT() NAMED_UNIT(*) SI_UNIT(.MILLI.,.METRE.) );
#416 = ( NAMED_UNIT(*) PLANE_ANGLE_UNIT() SI_UNIT($,.RADIAN.) );
#417 = ( NAMED_UNIT(*) SI_UNIT($,.STERADIAN.) SOLID_ANGLE_UNIT() );
#418 = UNCERTAINTY_MEASURE_WITH_UNIT(LENGTH_MEASURE(1.E-07),#415,
  'distance_accuracy_value','confusion accuracy');
#419 = PRODUCT_RELATED_PRODUCT_CATEGORY('part',$,(#7));
ENDSEC;
END-ISO-10303-21;
